<?xml version="1.0" encoding="UTF-8" standalone="no"?>
<svg
   xmlns:dc="http://purl.org/dc/elements/1.1/"
   xmlns:cc="http://creativecommons.org/ns#"
   xmlns:rdf="http://www.w3.org/1999/02/22-rdf-syntax-ns#"
   xmlns:svg="http://www.w3.org/2000/svg"
   xmlns="http://www.w3.org/2000/svg"
   xmlns:sodipodi="http://sodipodi.sourceforge.net/DTD/sodipodi-0.dtd"
   xmlns:inkscape="http://www.inkscape.org/namespaces/inkscape"
   viewBox="0 0 1803.63 1803.63"
   version="1.1"
   id="svg2516"
   sodipodi:docname="branding.svg"
   inkscape:version="0.92.4 (f8dce91, 2019-08-02)">
  <metadata
     id="metadata2520">
    <rdf:RDF>
      <cc:Work
         rdf:about="">
        <dc:format>image/svg+xml</dc:format>
        <dc:type
           rdf:resource="http://purl.org/dc/dcmitype/StillImage" />
      </cc:Work>
    </rdf:RDF>
  </metadata>
  <sodipodi:namedview
     pagecolor="#ffffff"
     bordercolor="#666666"
     borderopacity="1"
     objecttolerance="10"
     gridtolerance="10"
     guidetolerance="10"
     inkscape:pageopacity="0"
     inkscape:pageshadow="2"
     inkscape:window-width="1859"
     inkscape:window-height="1056"
     id="namedview2518"
     showgrid="false"
     inkscape:zoom="0.34"
     inkscape:cx="373.87382"
     inkscape:cy="901.815"
     inkscape:window-x="61"
     inkscape:window-y="24"
     inkscape:window-maximized="1"
     inkscape:current-layer="icons" />
  <defs
     id="defs2440">
    <style
       id="style2438">.cls-1{fill:none;}.cls-1,.cls-12{stroke:#4542d9;stroke-miterlimit:10;stroke-width:20px;}.cls-2{font-size:146.2px;font-family:Aleo-Regular, Aleo;}.cls-13,.cls-2,.cls-7{fill:#4542d9;}.cls-3{letter-spacing:0.05em;}.cls-4{letter-spacing:-0.03em;}.cls-5{letter-spacing:0.02em;}.cls-6{letter-spacing:0em;}.cls-7{font-size:109.39px;}.cls-14,.cls-7{font-family:Montserrat-SemiBold, Montserrat;font-weight:600;}.cls-8{letter-spacing:-0.03em;}.cls-9{letter-spacing:0em;}.cls-10{letter-spacing:-0.02em;}.cls-11{letter-spacing:-0.02em;}.cls-12,.cls-14{fill:#fff;}.cls-14{font-size:213.21px;}</style>
  </defs>
  <title
     id="title2442">BRANDING</title>
  <g
     id="Layer_2"
     data-name="Layer 2">
    <g
       id="icons">
      <rect
         class="cls-1"
         x="10"
         y="10"
         width="1783.63"
         height="1783.63"
         id="rect2444"
         style="fill:#ffffff;fill-opacity:1;stroke:#4542d9;stroke-width:20px;stroke-miterlimit:10" />
      <line
         class="cls-1"
         x1="865.63"
         y1="10"
         x2="872.22998"
         y2="1793.63"
         id="line2446"
         style="fill:none;stroke:#4542d9;stroke-width:20px;stroke-miterlimit:10" />
      <line
         class="cls-1"
         x1="10"
         y1="856.5"
         x2="1793.63"
         y2="863.10999"
         id="line2448"
         style="fill:none;stroke:#4542d9;stroke-width:20px;stroke-miterlimit:10" />
      <g
         aria-label="ABCDEFabcdef"
         transform="translate(1018.03,416.36)"
         style="font-size:146.19999695px;font-family:Aleo-Regular, Aleo;fill:#4542d9"
         id="text2462">
        <path
           d="m 49.970702,-92.374412 -19.55996,53.040331 H 69.602049 Z M 41.832616,-106.58037 H 58.180175 L 98.799217,0 H 83.808006 L 74.099413,-27.341113 H 26.056152 L 16.347558,0 H 1.1421875 Z"
           style="font-size:146.19999695px;font-family:Aleo-Regular, Aleo;fill:#4542d9"
           id="path3145"
           inkscape:connector-curvature="0" />
        <path
           d="m 141.62885,-50.898729 v 39.048534 h 23.12929 q 11.63604,0 17.2042,-4.78291 5.63955,-4.854297 5.63955,-14.777051 0,-9.99414 -5.63955,-14.705663 -5.56816,-4.78291 -17.2042,-4.78291 z m 0,-43.831445 v 32.124023 h 21.34463 q 10.56523,0 15.70507,-3.926269 5.21123,-3.997657 5.21123,-12.135742 0,-8.066699 -5.21123,-12.064356 -5.13984,-3.997656 -15.70507,-3.997656 z m -14.42012,-11.850196 h 36.83555 q 16.49033,0 25.41367,6.853126 8.92334,6.853125 8.92334,19.488574 0,9.77998 -4.56875,15.562304 -4.56875,5.782324 -13.4207,7.210059 10.63662,2.284375 16.49033,9.56582 5.92509,7.210058 5.92509,18.060839 0,14.277344 -9.70859,22.0584958 Q 183.39008,0 165.47201,0 h -38.26328 z"
           style="letter-spacing:0.05em"
           id="path3147"
           inkscape:connector-curvature="0" />
        <path
           d="m 306.42908,-98.370896 v 15.20537 q -7.28144,-6.781738 -15.5623,-10.136913 -8.20947,-3.355176 -17.48975,-3.355176 -18.275,0 -27.98359,11.207714 -9.70859,11.136328 -9.70859,32.266797 0,21.059081 9.70859,32.266796 9.70859,11.1363277 27.98359,11.1363277 9.28028,0 17.48975,-3.3551757 8.28086,-3.355176 15.5623,-10.136914 v 15.0625975 q -7.56699,5.1398437 -16.06201,7.70976548 -8.42363,2.56992182 -17.84668,2.56992182 -24.20009,0 -38.1205,-14.7770508 -13.92041,-14.848437 -13.92041,-40.476268 0,-25.699219 13.92041,-40.476269 13.92041,-14.848437 38.1205,-14.848437 9.56582,0 17.98946,2.56992 8.49502,2.49854 15.91923,7.566994 z"
           id="path3149"
           inkscape:connector-curvature="0" />
        <path
           d="m 343.26463,-94.730174 v 82.879979 h 17.41836 q 22.05849,0 32.26679,-9.99414 10.27969,-9.994141 10.27969,-31.55293 0,-21.416015 -10.27969,-31.338768 -10.2083,-9.994141 -32.26679,-9.994141 z M 328.84451,-106.58037 H 358.47 q 30.98183,0 45.47334,12.920997 14.4915,12.849609 14.4915,40.262108 0,27.555273 -14.56289,40.476269 Q 389.30906,0 358.47,0 h -29.62549 z"
           id="path3151"
           inkscape:connector-curvature="0" />
        <path
           d="m 441.34997,-106.58037 h 67.38906 v 12.135743 h -52.96895 v 31.552929 h 50.75596 v 12.135742 h -50.75596 v 38.620214 h 54.25391 V 0 h -68.67402 z"
           id="path3153"
           inkscape:connector-curvature="0" />
        <path
           d="m 533.86715,-106.58037 h 61.2498 v 12.135743 h -46.82969 v 31.410156 h 42.26094 v 12.135742 H 548.28726 V 0 h -14.42011 z"
           id="path3155"
           inkscape:connector-curvature="0" />
        <path
           d="m 50.113476,135.24928 q -15.919238,0 -22.058496,3.64072 -6.139258,3.64073 -6.139258,12.42129 0,6.9959 4.56875,11.13633 4.640137,4.06904 12.564062,4.06904 10.922168,0 17.489746,-7.70976 6.638965,-7.78115 6.638965,-20.63076 v -2.92686 z m 26.198925,-5.42539 V 175.44 H 63.177245 v -12.13574 q -4.497363,7.28145 -11.207715,10.77939 -6.710351,3.42657 -16.418945,3.42657 -12.278515,0 -19.55996,-6.85313 -7.2100588,-6.92451 -7.2100588,-18.48916 0,-13.49209 8.9947268,-20.34521 9.066113,-6.85313 26.984179,-6.85313 h 18.417773 v -1.28496 q 0,-9.06611 -5.996484,-13.99179 -5.925098,-4.99707 -16.704492,-4.99707 -6.853125,0 -13.349316,1.64189 -6.496192,1.64189 -12.492676,4.92568 V 99.127602 q 7.210058,-2.784082 13.991797,-4.14043 6.781738,-1.427734 13.206542,-1.427734 17.346973,0 25.913379,8.994722 8.566406,8.99473 8.566406,27.26973 z"
           id="path3157"
           inkscape:connector-curvature="0" />
        <path
           d="m 142.37255,135.53483 q 0,-14.49151 -5.99648,-22.70098 -5.9251,-8.28086 -16.34756,-8.28086 -10.42246,0 -16.41894,8.28086 -5.925101,8.20947 -5.925101,22.70098 0,14.4915 5.925101,22.77236 5.99648,8.20947 16.41894,8.20947 10.42246,0 16.34756,-8.20947 5.99648,-8.28086 5.99648,-22.77236 z M 97.684469,107.62262 q 4.140431,-7.13867 10.422461,-10.565233 6.35342,-3.497949 15.13398,-3.497949 14.56289,0 23.62901,11.564652 9.1375,11.56464 9.1375,30.41074 0,18.84609 -9.1375,30.41074 -9.06612,11.56465 -23.62901,11.56465 -8.78056,0 -15.13398,-3.42657 -6.28203,-3.49794 -10.422461,-10.63662 V 175.44 H 84.477926 V 64.36227 h 13.206543 z"
           style="letter-spacing:0.02em"
           id="path3159"
           inkscape:connector-curvature="0" />
        <path
           d="m 238.24206,98.556508 v 12.278512 q -5.56817,-3.06963 -11.20772,-4.56875 -5.56816,-1.5705 -11.2791,-1.5705 -12.77822,0 -19.84551,8.13808 -7.06728,8.0667 -7.06728,22.70098 0,14.63427 7.06728,22.77236 7.06729,8.0667 19.84551,8.0667 5.71094,0 11.2791,-1.49912 5.63955,-1.57051 11.20772,-4.64014 v 12.13574 q -5.49678,2.56993 -11.42188,3.85489 -5.85371,1.28496 -12.49267,1.28496 -18.06084,0 -28.69746,-11.35049 -10.63662,-11.35049 -10.63662,-30.6249 0,-19.55996 10.708,-30.76768 10.7794,-11.207712 29.48272,-11.207712 6.06787,0 11.85019,1.284961 5.78233,1.213574 11.20772,3.712109 z"
           style="letter-spacing:0.02em"
           id="path3161"
           inkscape:connector-curvature="0" />
        <path
           d="M 293.71965,107.62262 V 64.36227 H 306.8548 V 175.44 h -13.13515 v -11.99297 q -4.14043,7.13868 -10.49385,10.63662 -6.28203,3.42657 -15.13398,3.42657 -14.49151,0 -23.62901,-11.56465 -9.06611,-11.56465 -9.06611,-30.41074 0,-18.8461 9.06611,-30.41074 9.1375,-11.564652 23.62901,-11.564652 8.85195,0 15.13398,3.497949 6.35342,3.426563 10.49385,10.565233 z m -44.75947,27.91221 q 0,14.4915 5.92509,22.77236 5.99649,8.20947 16.41895,8.20947 10.42246,0 16.41894,-8.20947 5.99649,-8.28086 5.99649,-22.77236 0,-14.49151 -5.99649,-22.70098 -5.99648,-8.28086 -16.41894,-8.28086 -10.42246,0 -16.41895,8.28086 -5.92509,8.20947 -5.92509,22.70098 z"
           style="letter-spacing:0em"
           id="path3163"
           inkscape:connector-curvature="0" />
        <path
           d="m 402.29885,132.17965 v 6.42481 h -60.39317 q 0.85665,13.56347 8.13809,20.70214 7.35283,7.06729 20.4166,7.06729 7.56699,0 14.63428,-1.85606 7.13867,-1.85605 14.13457,-5.56816 v 12.42129 q -7.06729,2.99824 -14.4915,4.56875 -7.42422,1.57051 -15.0626,1.57051 -19.13164,0 -30.33936,-11.13633 -11.13632,-11.13633 -11.13632,-30.1252 0,-19.63134 10.56523,-31.1246 10.63662,-11.564652 28.62607,-11.564652 16.1334,0 25.48506,10.422462 9.42305,10.35107 9.42305,28.19775 z m -13.13516,-3.85488 q -0.14277,-10.7794 -6.06787,-17.2042 -5.85371,-6.4248 -15.5623,-6.4248 -10.99356,0 -17.63252,6.21064 -6.56758,6.21064 -7.56699,17.48975 z"
           style="letter-spacing:0em"
           id="path3165"
           inkscape:connector-curvature="0" />
        <path
           d="m 464.33391,64.36227 v 10.922168 h -12.56407 q -7.06728,0 -9.85136,2.855469 -2.7127,2.855469 -2.7127,10.279687 v 7.067285 h 21.63018 V 105.69518 H 439.20578 V 175.44 H 425.99924 V 105.69518 H 413.43518 V 95.486879 h 12.56406 v -5.568164 q 0,-13.349316 6.21064,-19.417187 6.21065,-6.139258 19.70274,-6.139258 z"
           style="letter-spacing:0em"
           id="path3167"
           inkscape:connector-curvature="0" />
      </g>
      <g
         aria-label="Type"
         transform="translate(990.1,155.41)"
         style="font-weight:600;font-size:109.38999939px;font-family:Montserrat-SemiBold, Montserrat;fill:#4542d9"
         id="text2468">
        <path
           d="M 0.53413086,-79.745737 H 74.030537 v 15.543208 H 47.591059 V 0 H 27.027021 V -64.202529 H 0.53413086 Z"
           style="letter-spacing:-0.03em"
           id="path3110"
           inkscape:connector-curvature="0" />
        <path
           d="m 63.585327,-59.822656 h 19.121885 l 16.077339,40.593945 13.673749,-40.593945 h 19.12189 L 106.42262,5.6617871 q -3.79233,9.9882469 -8.86657,13.9408149 -5.02083,4.005982 -13.299859,4.005982 H 73.199683 V 11.056509 h 5.982265 q 4.860591,0 7.050527,-1.5489798 2.24335,-1.5489794 3.471851,-5.5549609 l 0.534131,-1.6558056 z"
           id="path3112"
           inkscape:connector-curvature="0" />
        <path
           d="M 161.91882,-8.6529199 V 22.753974 h -19.12188 v -82.57663 h 19.12188 v 8.759746 q 3.95257,-5.234482 8.75975,-7.691484 4.80718,-2.510415 11.05651,-2.510415 11.05651,0 18.16045,8.813159 7.10394,8.759746 7.10394,22.593735 0,13.833989 -7.10394,22.6471484 -7.10394,8.7597461 -18.16045,8.7597461 -6.24933,0 -11.05651,-2.45700196 -4.80718,-2.51041504 -8.75975,-7.74489744 z m 12.71232,-38.7244871 q -6.14251,0 -9.45412,4.540112 -3.2582,4.4867 -3.2582,12.97938 0,8.492681 3.2582,13.032793 3.31161,4.486699 9.45412,4.486699 6.1425,0 9.34729,-4.486699 3.25819,-4.486699 3.25819,-13.032793 0,-8.546094 -3.25819,-13.032793 -3.20479,-4.486699 -9.34729,-4.486699 z"
           id="path3114"
           inkscape:connector-curvature="0" />
        <path
           d="m 280.92317,-30.071567 v 5.448135 h -44.70675 q 0.69437,6.730048 4.86059,10.095073 4.16622,3.365024 11.64406,3.365024 6.03567,0 12.33842,-1.762632 6.35616,-1.816045 13.03279,-5.448134 v 14.7420112 q -6.78346,2.5638281 -13.56692,3.84574214 -6.78346,1.33532716 -13.56693,1.33532716 -16.23757,0 -25.26439,-8.2256152 -8.97339,-8.2790283 -8.97339,-23.1812793 0,-14.635185 8.81315,-23.02104 8.86658,-8.385854 24.35637,-8.385854 14.10106,0 22.54032,8.49268 8.49268,8.492681 8.49268,22.700562 z m -19.65601,-6.356157 q 0,-5.448135 -3.20479,-8.759746 -3.15137,-3.365025 -8.27902,-3.365025 -5.55497,0 -9.02682,3.151372 -3.47185,3.097959 -4.32646,8.973399 z"
           id="path3116"
           inkscape:connector-curvature="0" />
      </g>
      <g
         aria-label="Logo"
         transform="translate(68.54,155.41)"
         style="font-weight:600;font-size:109.38999939px;font-family:Montserrat-SemiBold, Montserrat;fill:#4542d9"
         id="text2474">
        <path
           d="m 10.04166,-79.745737 h 20.564038 v 64.202529 H 66.712944 V 0 H 10.04166 Z"
           style="letter-spacing:0em"
           id="path3101"
           inkscape:connector-curvature="0" />
        <path
           d="m 102.63623,-47.591059 q -6.356158,0 -9.721183,4.593525 -3.311611,4.540112 -3.311611,13.139619 0,8.599507 3.311611,13.193032 3.365025,4.540113 9.721183,4.540113 6.24933,0 9.56094,-4.540113 3.31161,-4.593525 3.31161,-13.193032 0,-8.599507 -3.31161,-13.139619 -3.31161,-4.593525 -9.56094,-4.593525 z m 0,-13.67375 q 15.43638,0 24.0893,8.332441 8.70633,8.332441 8.70633,23.074453 0,14.742012 -8.70633,23.0744531 -8.65292,8.3324414 -24.0893,8.3324414 -15.489796,0 -24.249542,-8.3324414 -8.706333,-8.3324411 -8.706333,-23.0744531 0,-14.742012 8.706333,-23.074453 8.759746,-8.332441 24.249542,-8.332441 z"
           id="path3103"
           inkscape:connector-curvature="0" />
        <path
           d="m 190.07345,-10.148486 q -3.95257,5.2344821 -8.70633,7.6914841 Q 176.61336,0 170.36402,0 q -10.94968,0 -18.10703,-8.5995068 -7.15736,-8.6529202 -7.15736,-22.0061912 0,-13.406685 7.15736,-21.952778 7.15735,-8.599507 18.10703,-8.599507 6.24934,0 11.0031,2.457002 4.75376,2.457002 8.70633,7.744897 v -8.866572 h 19.22871 v 53.7869773 q 0,14.4215331 -9.13363,22.0061917 -9.08023,7.638071 -26.38607,7.638071 -5.60837,0 -10.84285,-0.85461 -5.23449,-0.854609 -10.52238,-2.617241 V 5.2344824 q 5.02083,2.8843066 9.82801,4.2730468 4.80717,1.4421538 9.66776,1.4421538 9.40071,0 13.78058,-4.112808 4.37987,-4.1128076 4.37987,-12.8725537 z m -12.60549,-37.228921 q -5.92885,0 -9.24046,4.379873 -3.31161,4.379873 -3.31161,12.391836 0,8.225615 3.20478,12.498662 3.20479,4.219634 9.34729,4.219634 5.98227,0 9.29388,-4.379873 3.31161,-4.379873 3.31161,-12.338423 0,-8.011963 -3.31161,-12.391836 -3.31161,-4.379873 -9.29388,-4.379873 z"
           id="path3105"
           inkscape:connector-curvature="0" />
        <path
           d="m 256.25226,-47.591059 q -6.35616,0 -9.72119,4.593525 -3.31161,4.540112 -3.31161,13.139619 0,8.599507 3.31161,13.193032 3.36503,4.540113 9.72119,4.540113 6.24933,0 9.56094,-4.540113 3.31161,-4.593525 3.31161,-13.193032 0,-8.599507 -3.31161,-13.139619 -3.31161,-4.593525 -9.56094,-4.593525 z m 0,-13.67375 q 15.43638,0 24.0893,8.332441 8.70633,8.332441 8.70633,23.074453 0,14.742012 -8.70633,23.0744531 -8.65292,8.3324414 -24.0893,8.3324414 -15.4898,0 -24.24954,-8.3324414 -8.70634,-8.3324411 -8.70634,-23.0744531 0,-14.742012 8.70634,-23.074453 8.75974,-8.332441 24.24954,-8.332441 z"
           id="path3107"
           inkscape:connector-curvature="0" />
      </g>
      <g
         aria-label="Color"
         transform="translate(68.54,993.19)"
         style="font-weight:600;font-size:109.38999939px;font-family:Montserrat-SemiBold, Montserrat;fill:#4542d9"
         id="text2480">
        <path
           d="M 73.282753,-4.379873 Q 67.620966,-1.4421533 61.478462,0.05341309 55.335957,1.5489795 48.659321,1.5489795 28.73624,1.5489795 17.092187,-9.5609423 5.4481347,-20.724277 5.4481347,-39.792749 q 0,-19.121884 11.6440523,-30.231806 11.644053,-11.163335 31.567134,-11.163335 6.676636,0 12.819141,1.495566 6.142504,1.495567 11.804291,4.433286 v 16.504644 q -5.7152,-3.899155 -11.270161,-5.7152 -5.55496,-1.816045 -11.697465,-1.816045 -11.003096,0 -17.30584,7.050527 -6.302744,7.050527 -6.302744,19.442363 0,12.338423 6.302744,19.38895 6.302744,7.050528 17.30584,7.050528 6.142505,0 11.697465,-1.816045 5.554961,-1.816045 11.270161,-5.7152 z"
           style="letter-spacing:-0.02em"
           id="path1585"
           inkscape:connector-curvature="0" />
        <path
           d="m 114.99622,-47.591059 q -6.35616,0 -9.72118,4.593525 -3.31161,4.540112 -3.31161,13.139619 0,8.599507 3.31161,13.193032 3.36502,4.540113 9.72118,4.540113 6.24933,0 9.56094,-4.540113 3.31162,-4.593525 3.31162,-13.193032 0,-8.599507 -3.31162,-13.139619 -3.31161,-4.593525 -9.56094,-4.593525 z m 0,-13.67375 q 15.43638,0 24.0893,8.332441 8.70634,8.332441 8.70634,23.074453 0,14.742012 -8.70634,23.0744531 -8.65292,8.3324414 -24.0893,8.3324414 -15.489793,0 -24.249539,-8.3324414 -8.706333,-8.3324411 -8.706333,-23.0744531 0,-14.742012 8.706333,-23.074453 8.759746,-8.332441 24.249539,-8.332441 z"
           id="path1587"
           inkscape:connector-curvature="0" />
        <path
           d="m 161.73267,-83.110761 h 19.12189 V 0 h -19.12189 z"
           id="path1589"
           inkscape:connector-curvature="0" />
        <path
           d="m 227.80466,-47.591059 q -6.35615,0 -9.72118,4.593525 -3.31161,4.540112 -3.31161,13.139619 0,8.599507 3.31161,13.193032 3.36503,4.540113 9.72118,4.540113 6.24933,0 9.56095,-4.540113 3.31161,-4.593525 3.31161,-13.193032 0,-8.599507 -3.31161,-13.139619 -3.31162,-4.593525 -9.56095,-4.593525 z m 0,-13.67375 q 15.43638,0 24.0893,8.332441 8.70634,8.332441 8.70634,23.074453 0,14.742012 -8.70634,23.0744531 -8.65292,8.3324414 -24.0893,8.3324414 -15.48979,0 -24.24954,-8.3324414 -8.70633,-8.3324411 -8.70633,-23.0744531 0,-14.742012 8.70633,-23.074453 8.75975,-8.332441 24.24954,-8.332441 z"
           id="path1591"
           inkscape:connector-curvature="0" />
        <path
           d="m 318.9808,-43.531665 q -2.51041,-1.175088 -5.02083,-1.709219 -2.457,-0.587543 -4.96741,-0.587543 -7.37101,0 -11.37699,4.753764 -3.95257,4.700352 -3.95257,13.513511 V 0 H 274.54112 V -59.822656 H 293.663 v 9.828008 q 3.6855,-5.87544 8.43927,-8.546094 4.80718,-2.724067 11.48381,-2.724067 0.96144,0 2.08311,0.106826 1.12168,0.05341 3.2582,0.320478 z"
           id="path1593"
           inkscape:connector-curvature="0" />
      </g>
      <g
         aria-label="Content"
         transform="translate(990.1,993.19)"
         style="font-weight:600;font-size:109.38999939px;font-family:Montserrat-SemiBold, Montserrat;fill:#4542d9"
         id="text2490">
        <path
           d="M 73.282753,-4.379873 Q 67.620966,-1.4421533 61.478462,0.05341309 55.335957,1.5489795 48.659321,1.5489795 28.73624,1.5489795 17.092187,-9.5609423 5.4481347,-20.724277 5.4481347,-39.792749 q 0,-19.121884 11.6440523,-30.231806 11.644053,-11.163335 31.567134,-11.163335 6.676636,0 12.819141,1.495566 6.142504,1.495567 11.804291,4.433286 v 16.504644 q -5.7152,-3.899155 -11.270161,-5.7152 -5.55496,-1.816045 -11.697465,-1.816045 -11.003096,0 -17.30584,7.050527 -6.302744,7.050527 -6.302744,19.442363 0,12.338423 6.302744,19.38895 6.302744,7.050528 17.30584,7.050528 6.142505,0 11.697465,-1.816045 5.554961,-1.816045 11.270161,-5.7152 z"
           style="letter-spacing:-0.02em"
           id="path3119"
           inkscape:connector-curvature="0" />
        <path
           d="m 114.99622,-47.591059 q -6.35616,0 -9.72118,4.593525 -3.31161,4.540112 -3.31161,13.139619 0,8.599507 3.31161,13.193032 3.36502,4.540113 9.72118,4.540113 6.24933,0 9.56094,-4.540113 3.31162,-4.593525 3.31162,-13.193032 0,-8.599507 -3.31162,-13.139619 -3.31161,-4.593525 -9.56094,-4.593525 z m 0,-13.67375 q 15.43638,0 24.0893,8.332441 8.70634,8.332441 8.70634,23.074453 0,14.742012 -8.70634,23.0744531 -8.65292,8.3324414 -24.0893,8.3324414 -15.489793,0 -24.249539,-8.3324414 -8.706333,-8.3324411 -8.706333,-23.0744531 0,-14.742012 8.706333,-23.074453 8.759746,-8.332441 24.249539,-8.332441 z"
           id="path3121"
           inkscape:connector-curvature="0" />
        <path
           d="M 221.87581,-36.427724 V 0 H 202.6471 V -5.9288525 -27.881631 q 0,-7.744897 -0.37389,-10.682617 -0.32048,-2.93772 -1.17509,-4.32646 -1.12168,-1.869458 -3.04455,-2.884306 -1.92287,-1.068262 -4.37987,-1.068262 -5.98227,0 -9.4007,4.646938 -3.41844,4.593526 -3.41844,12.765728 V 0 h -19.12189 v -59.822656 h 19.12189 v 8.759746 q 4.32646,-5.234482 9.18705,-7.691484 4.86059,-2.510415 10.73603,-2.510415 10.36214,0 15.70345,6.356157 5.39472,6.356157 5.39472,18.480928 z"
           id="path3123"
           inkscape:connector-curvature="0" />
        <path
           d="m 252.90157,-76.808017 v 16.985361 H 272.611 v 13.67375 h -19.70943 v 25.371216 q 0,4.16622 1.6558,5.661787 1.65581,1.442153 6.56981,1.442153 h 9.82801 V 0 H 254.55737 Q 243.2338,0 238.48004,-4.7003515 233.77968,-9.4541162 233.77968,-20.77769 v -25.371216 h -9.50752 v -13.67375 h 9.50752 v -16.985361 z"
           style="letter-spacing:-0.02em"
           id="path3125"
           inkscape:connector-curvature="0" />
        <path
           d="m 336.15288,-30.071567 v 5.448135 h -44.70675 q 0.69437,6.730048 4.86059,10.095073 4.16622,3.365024 11.64405,3.365024 6.03568,0 12.33842,-1.762632 6.35616,-1.816045 13.0328,-5.448134 v 14.7420112 q -6.78346,2.5638281 -13.56693,3.84574214 -6.78346,1.33532716 -13.56692,1.33532716 -16.23758,0 -25.26439,-8.2256152 -8.9734,-8.2790283 -8.9734,-23.1812793 0,-14.635185 8.81316,-23.02104 8.86657,-8.385854 24.35637,-8.385854 14.10105,0 22.54032,8.49268 8.49268,8.492681 8.49268,22.700562 z m -19.65602,-6.356157 q 0,-5.448135 -3.20478,-8.759746 -3.15137,-3.365025 -8.27903,-3.365025 -5.55496,0 -9.02681,3.151372 -3.47185,3.097959 -4.32646,8.973399 z"
           id="path3127"
           inkscape:connector-curvature="0" />
        <path
           d="M 410.71754,-36.427724 V 0 H 391.48883 V -5.9288525 -27.881631 q 0,-7.744897 -0.37389,-10.682617 -0.32048,-2.93772 -1.17509,-4.32646 -1.12167,-1.869458 -3.04454,-2.884306 -1.92287,-1.068262 -4.37987,-1.068262 -5.98227,0 -9.40071,4.646938 -3.41843,4.593526 -3.41843,12.765728 V 0 h -19.12189 v -59.822656 h 19.12189 v 8.759746 q 4.32645,-5.234482 9.18705,-7.691484 4.86059,-2.510415 10.73603,-2.510415 10.36213,0 15.70344,6.356157 5.39472,6.356157 5.39472,18.480928 z"
           id="path3129"
           inkscape:connector-curvature="0" />
        <path
           d="m 449.44204,-76.808017 v 16.985361 h 19.70942 v 13.67375 h -19.70942 v 25.371216 q 0,4.16622 1.6558,5.661787 1.65581,1.442153 6.56981,1.442153 h 9.82801 V 0 H 451.09784 Q 439.77427,0 435.0205,-4.7003515 430.32015,-9.4541162 430.32015,-20.77769 v -25.371216 h -9.50753 v -13.67375 h 9.50753 v -16.985361 z"
           id="path3131"
           inkscape:connector-curvature="0" />
      </g>
      <rect
         class="cls-12"
         x="138.53999"
         y="1201.7"
         width="267.38"
         height="267.38"
         id="rect2492"
         style="fill:#ffffff;stroke:#4542d9;stroke-width:20px;stroke-miterlimit:10" />
      <rect
         class="cls-12"
         x="1409.52"
         y="1201.7"
         width="267.38"
         height="267.38"
         id="rect2494"
         style="fill:#ffffff;stroke:#4542d9;stroke-width:20px;stroke-miterlimit:10" />
      <rect
         class="cls-13"
         x="469"
         y="1201.7"
         width="267.38"
         height="267.38"
         id="rect2496"
         style="fill:#4542d9" />
      <circle
         class="cls-13"
         cx="417.10999"
         cy="445.14999"
         r="177.47"
         id="circle2498"
         style="fill:#4542d9" />
      <g
         aria-label="C"
         transform="translate(344,518.09)"
         style="font-weight:600;font-size:213.21000671px;font-family:Montserrat-SemiBold, Montserrat;fill:#ffffff"
         id="text2500">
        <path
           d="M 142.83405,-8.5367288 Q 131.79876,-2.8108741 119.82652,0.10410645 107.85428,3.019087 94.840975,3.019087 q -38.831706,0 -61.526911,-21.654141 -22.695206,-21.758248 -22.695206,-58.92425 0,-37.270106 22.695206,-58.924246 22.695205,-21.75825 61.526911,-21.75825 13.013305,0 24.985545,2.91498 11.97224,2.91498 23.00753,8.64083 v 32.1689 q -11.13939,-7.59977 -21.96646,-11.13939 -10.82707,-3.53962 -22.799315,-3.53962 -21.445929,0 -33.73049,13.74205 -12.284561,13.74205 -12.284561,37.894746 0,24.048589 12.284561,37.790641 12.284561,13.742051 33.73049,13.742051 11.972245,0 22.799315,-3.539619 10.82707,-3.53962 21.96646,-11.13939 z"
           style="font-weight:600;font-size:213.21000671px;font-family:Montserrat-SemiBold, Montserrat;fill:#ffffff"
           id="path1582"
           inkscape:connector-curvature="0" />
      </g>
      <line
         class="cls-1"
         x1="1409.52"
         y1="1201.7"
         x2="1676.9"
         y2="1469.08"
         id="line2502"
         style="fill:none;stroke:#4542d9;stroke-width:20px;stroke-miterlimit:10" />
      <line
         class="cls-1"
         x1="1676.9"
         y1="1201.7"
         x2="1409.52"
         y2="1469.08"
         id="line2504"
         style="fill:none;stroke:#4542d9;stroke-width:20px;stroke-miterlimit:10" />
      <line
         class="cls-1"
         x1="962.63"
         y1="1211.7"
         x2="1329.14"
         y2="1211.7"
         id="line2506"
         style="fill:none;stroke:#4542d9;stroke-width:20px;stroke-miterlimit:10" />
      <line
         class="cls-1"
         x1="970.63"
         y1="1469.08"
         x2="1337.14"
         y2="1469.08"
         id="line2508"
         style="fill:none;stroke:#4542d9;stroke-width:20px;stroke-miterlimit:10" />
      <line
         class="cls-1"
         x1="960.62"
         y1="1288.3"
         x2="1327.13"
         y2="1288.3"
         id="line2510"
         style="fill:none;stroke:#4542d9;stroke-width:20px;stroke-miterlimit:10" />
      <line
         class="cls-1"
         x1="965.62"
         y1="1378.6899"
         x2="1332.13"
         y2="1378.6899"
         id="line2512"
         style="fill:none;stroke:#4542d9;stroke-width:20px;stroke-miterlimit:10" />
    </g>
  </g>
</svg>
