<?xml version="1.0" encoding="UTF-8" standalone="no"?>
<svg
   xmlns:dc="http://purl.org/dc/elements/1.1/"
   xmlns:cc="http://creativecommons.org/ns#"
   xmlns:rdf="http://www.w3.org/1999/02/22-rdf-syntax-ns#"
   xmlns:svg="http://www.w3.org/2000/svg"
   xmlns="http://www.w3.org/2000/svg"
   xmlns:sodipodi="http://sodipodi.sourceforge.net/DTD/sodipodi-0.dtd"
   xmlns:inkscape="http://www.inkscape.org/namespaces/inkscape"
   id="Layer_1"
   data-name="Layer 1"
   viewBox="0 0 600.00003 265.99999"
   version="1.1"
   sodipodi:docname="Tavolo Logo.svg"
   inkscape:version="0.92.4 (f8dce91, 2019-08-02)"
   width="600"
   height="266">
  <metadata
     id="metadata954">
    <rdf:RDF>
      <cc:Work
         rdf:about="">
        <dc:format>image/svg+xml</dc:format>
        <dc:type
           rdf:resource="http://purl.org/dc/dcmitype/StillImage" />
        <dc:title>Tavolo Logo</dc:title>
      </cc:Work>
    </rdf:RDF>
  </metadata>
  <sodipodi:namedview
     pagecolor="#ffffff"
     bordercolor="#666666"
     borderopacity="1"
     objecttolerance="10"
     gridtolerance="10"
     guidetolerance="10"
     inkscape:pageopacity="0"
     inkscape:pageshadow="2"
     inkscape:window-width="1859"
     inkscape:window-height="1056"
     id="namedview952"
     showgrid="false"
     inkscape:zoom="0.97035431"
     inkscape:cx="173.05417"
     inkscape:cy="101.0991"
     inkscape:window-x="61"
     inkscape:window-y="24"
     inkscape:window-maximized="1"
     inkscape:current-layer="Layer_1" />
  <defs
     id="defs915">
    <style
       id="style913">.cls-1{font-size:43.6px;font-family:GlacialIndifference-Regular, Glacial Indifference;letter-spacing:0.29em;}.cls-2{letter-spacing:0.25em;}.cls-3{letter-spacing:0.29em;}.cls-4{font-size:132.18px;font-family:GillSansMT, Gill Sans MT;}.cls-5{letter-spacing:-0.1em;}.cls-6{letter-spacing:-0.08em;}.cls-7{letter-spacing:-0.04em;}.cls-8{fill:none;stroke:#231f20;stroke-miterlimit:10;stroke-width:2px;}</style>
  </defs>
  <title
     id="title917">Tavolo Logo</title>
  <g
     id="g1214"
     transform="translate(0,0.73999023)">
    <g
       id="text923"
       style="font-size:43.59999847px;font-family:GlacialIndifference-Regular, 'Glacial Indifference';letter-spacing:0.28999999em;fill:#000000;fill-opacity:1"
       transform="translate(67.34,217.68)"
       aria-label="SOLUTIONS LLLC">
      <path
         inkscape:connector-curvature="0"
         id="path1085"
         style="font-size:43.59999847px;font-family:GlacialIndifference-Regular, 'Glacial Indifference';letter-spacing:0.28999999em;fill:#000000;fill-opacity:1"
         d="m 23.332812,-30.741405 v 4.193945 q -2.448242,-1.170898 -4.619727,-1.745703 -2.171484,-0.574805 -4.193945,-0.574805 -3.512695,0 -5.4287106,1.3625 -1.8947265,1.3625 -1.8947265,3.874609 0,2.107618 1.2560546,3.19336 1.2773437,1.064453 4.8113275,1.724414 l 2.597266,0.532226 q 4.811328,0.91543 7.089258,3.235938 2.299218,2.299218 2.299218,6.1738276 0,4.6197264 -3.108203,7.0041013 -3.086914,2.38437489 -9.06914,2.38437489 -2.256641,0 -4.811328,-0.51093748 Q 5.7267576,-0.40449217 3.0017577,-1.4050781 v -4.4281248 q 2.6185546,1.4689452 5.1306639,2.2140624 2.5121094,0.7451172 4.9390624,0.7451172 3.683008,0 5.684179,-1.4476562 2.001172,-1.4476562 2.001172,-4.130078 0,-2.3417965 -1.447656,-3.6617185 -1.426367,-1.319922 -4.704883,-1.979883 l -2.618554,-0.510937 q -4.8113282,-0.958008 -6.9615234,-3.001758 -2.1501953,-2.04375 -2.1501953,-5.68418 0,-4.215234 2.9591796,-6.642187 2.9804687,-2.426953 8.1962891,-2.426953 2.235351,0 4.555859,0.404492 2.320508,0.404492 4.747461,1.213477 z" />
      <path
         inkscape:connector-curvature="0"
         id="path1087"
         style="font-size:43.59999847px;font-family:GlacialIndifference-Regular, 'Glacial Indifference';letter-spacing:0.28999999em;fill:#000000;fill-opacity:1"
         d="m 57.500051,-28.867968 q -4.683593,0 -7.451171,3.491406 -2.746289,3.491407 -2.746289,9.516211 0,6.0035154 2.746289,9.4949215 2.767578,3.4914062 7.451171,3.4914062 4.683594,0 7.408594,-3.4914062 2.746289,-3.4914061 2.746289,-9.4949215 0,-6.024804 -2.746289,-9.516211 -2.725,-3.491406 -7.408594,-3.491406 z m 0,-3.491406 q 6.684766,0 10.687109,4.491992 4.002344,4.470703 4.002344,12.007031 0,7.5150388 -4.002344,12.0070308 -4.002343,4.47070299 -10.687109,4.47070299 -6.706054,0 -10.729687,-4.47070299 -4.002343,-4.4707029 -4.002343,-12.0070308 0,-7.536328 4.002343,-12.007031 4.023633,-4.491992 10.729687,-4.491992 z" />
      <path
         inkscape:connector-curvature="0"
         id="path1089"
         style="font-size:43.59999847px;font-family:GlacialIndifference-Regular, 'Glacial Indifference';letter-spacing:0.28999999em;fill:#000000;fill-opacity:1"
         d="m 91.560847,-31.784569 h 4.300391 V -3.6191405 H 111.33839 V 0 H 91.560847 Z" />
      <path
         inkscape:connector-curvature="0"
         id="path1091"
         style="font-size:43.59999847px;font-family:GlacialIndifference-Regular, 'Glacial Indifference';letter-spacing:0.28999999em;fill:#000000;fill-opacity:1"
         d="m 125.85582,-31.784569 h 4.32168 v 19.309179 q 0,5.1093746 1.85215,7.3660152 1.85215,2.2353515 6.00351,2.2353515 4.13008,0 5.98223,-2.2353515 1.85215,-2.2566406 1.85215,-7.3660152 v -19.309179 h 4.32168 v 19.841405 q 0,6.2164064 -3.08692,9.3884766 -3.06562,3.17207019 -9.06914,3.17207019 -6.0248,0 -9.11171,-3.17207019 -3.06563,-3.1720702 -3.06563,-9.3884766 z" />
      <path
         inkscape:connector-curvature="0"
         id="path1093"
         style="font-size:43.59999847px;font-family:GlacialIndifference-Regular, 'Glacial Indifference';letter-spacing:0.28999999em;fill:#000000;fill-opacity:1"
         d="m 166.51622,-31.784569 h 26.88808 v 3.61914 H 182.1211 V 0 h -4.32168 v -28.165429 h -11.2832 z" />
      <path
         inkscape:connector-curvature="0"
         id="path1095"
         style="font-size:43.59999847px;font-family:GlacialIndifference-Regular, 'Glacial Indifference';letter-spacing:0.28999999em;fill:#000000;fill-opacity:1"
         d="m 210.22097,-31.784569 h 4.30039 V 0 h -4.30039 z" />
      <path
         inkscape:connector-curvature="0"
         id="path1097"
         style="font-size:43.59999847px;font-family:GlacialIndifference-Regular, 'Glacial Indifference';letter-spacing:0.28999999em;fill:#000000;fill-opacity:1"
         d="m 248.62473,-28.867968 q -4.68359,0 -7.45117,3.491406 -2.74629,3.491407 -2.74629,9.516211 0,6.0035154 2.74629,9.4949215 2.76758,3.4914062 7.45117,3.4914062 4.68359,0 7.40859,-3.4914062 2.74629,-3.4914061 2.74629,-9.4949215 0,-6.024804 -2.74629,-9.516211 -2.725,-3.491406 -7.40859,-3.491406 z m 0,-3.491406 q 6.68477,0 10.68711,4.491992 4.00234,4.470703 4.00234,12.007031 0,7.5150388 -4.00234,12.0070308 -4.00234,4.47070299 -10.68711,4.47070299 -6.70605,0 -10.72969,-4.47070299 -4.00234,-4.4707029 -4.00234,-12.0070308 0,-7.536328 4.00234,-12.007031 4.02364,-4.491992 10.72969,-4.491992 z" />
      <path
         inkscape:connector-curvature="0"
         id="path1099"
         style="font-size:43.59999847px;font-family:GlacialIndifference-Regular, 'Glacial Indifference';letter-spacing:0.28999999em;fill:#000000;fill-opacity:1"
         d="m 282.68553,-31.784569 h 5.79063 l 14.09336,26.5900379 V -31.784569 h 4.17265 V 0 h -5.79062 L 286.85819,-26.590038 V 0 h -4.17266 z" />
      <path
         inkscape:connector-curvature="0"
         id="path1101"
         style="font-size:43.59999847px;font-family:GlacialIndifference-Regular, 'Glacial Indifference';letter-spacing:0.28999999em;fill:#000000;fill-opacity:1"
         d="m 346.99806,-30.741405 v 4.193945 q -2.44824,-1.170898 -4.61972,-1.745703 -2.17149,-0.574805 -4.19395,-0.574805 -3.51269,0 -5.42871,1.3625 -1.89472,1.3625 -1.89472,3.874609 0,2.107618 1.25605,3.19336 1.27734,1.064453 4.81133,1.724414 l 2.59726,0.532226 q 4.81133,0.91543 7.08926,3.235938 2.29922,2.299218 2.29922,6.1738276 0,4.6197264 -3.1082,7.0041013 -3.08692,2.38437489 -9.06914,2.38437489 -2.25664,0 -4.81133,-0.51093748 -2.5334,-0.51093748 -5.2584,-1.51152341 v -4.4281248 q 2.61855,1.4689452 5.13066,2.2140624 2.51211,0.7451172 4.93907,0.7451172 3.683,0 5.68418,-1.4476562 2.00117,-1.4476562 2.00117,-4.130078 0,-2.3417965 -1.44766,-3.6617185 -1.42637,-1.319922 -4.70488,-1.979883 l -2.61856,-0.510937 q -4.81132,-0.958008 -6.96152,-3.001758 -2.15019,-2.04375 -2.15019,-5.68418 0,-4.215234 2.95918,-6.642187 2.98046,-2.426953 8.19628,-2.426953 2.23536,0 4.55586,0.404492 2.32051,0.404492 4.74746,1.213477 z" />
      <path
         inkscape:connector-curvature="0"
         id="path1103"
         style="font-size:43.59999847px;font-family:GlacialIndifference-Regular, 'Glacial Indifference';letter-spacing:0.28999999em;fill:#000000;fill-opacity:1"
         d="m 394.78862,-31.784569 h 4.30039 v 28.1654285 h 15.47715 V 0 h -19.77754 z" />
      <path
         inkscape:connector-curvature="0"
         id="path1105"
         style="letter-spacing:0.25em;fill:#000000;fill-opacity:1"
         d="m 394.31911,-31.784569 h 4.30039 v 28.1654285 h 15.47715 V 0 h -19.77754 z" />
      <path
         inkscape:connector-curvature="0"
         id="path1107"
         style="letter-spacing:0.25em;fill:#000000;fill-opacity:1"
         d="m 429.48864,-31.784569 h 4.30039 v 28.1654285 h 15.47715 V 0 h -19.77754 z" />
      <path
         inkscape:connector-curvature="0"
         id="path1109"
         style="letter-spacing:0.25em;fill:#000000;fill-opacity:1"
         d="m 488.45935,-29.336327 v 4.53457 q -2.17149,-2.022461 -4.64102,-3.023047 -2.44824,-1.000586 -5.21582,-1.000586 -5.45,0 -8.34531,3.342383 -2.89531,3.321094 -2.89531,9.622656 0,6.2802732 2.89531,9.6226559 2.89531,3.3210936 8.34531,3.3210936 2.76758,0 5.21582,-1.0005859 2.46953,-1.0005859 4.64102,-3.0230467 v 4.491992 q -2.25664,1.53281244 -4.79004,2.29921867 -2.51211,0.76640622 -5.32227,0.76640622 -7.21699,0 -11.36836,-4.40683579 -4.15136,-4.4281248 -4.15136,-12.070898 0,-7.664062 4.15136,-12.070898 4.15137,-4.428125 11.36836,-4.428125 2.85274,0 5.36485,0.766406 2.53339,0.745118 4.74746,2.256641 z" />
    </g>
    <g
       id="text933"
       style="font-size:132.17999268px;font-family:GillSansMT, 'Gill Sans MT';fill:#000000;fill-opacity:1"
       transform="translate(40.28,153.6)"
       aria-label="TAVOLO">
      <path
         inkscape:connector-curvature="0"
         id="path1070"
         style="letter-spacing:-0.1em;fill:#000000;fill-opacity:1;stroke:none;stroke-opacity:1"
         d="M -0.38724607,-96.359731 H 81.128052 v 10.971972 H 46.921316 V 0 H 33.81949 V -85.387759 H -0.38724607 Z" />
      <path
         inkscape:connector-curvature="0"
         id="path1072"
         style="letter-spacing:-0.08em;fill:#000000;fill-opacity:1;stroke:none;stroke-opacity:1"
         d="m 111.78871,-83.51607 -17.684238,47.953972 h 35.433018 z m -7.35768,-12.843661 h 14.7799 L 155.93476,0 h -13.55361 l -8.77758,-24.719208 H 90.16747 L 81.389892,0 H 67.642657 Z" />
      <path
         inkscape:connector-curvature="0"
         id="path1074"
         style="letter-spacing:-0.04em;fill:#000000;fill-opacity:1;stroke:none;stroke-opacity:1"
         d="m 182.01104,0 -36.78838,-96.359731 h 13.61815 l 30.5279,81.128052 30.59244,-81.128052 h 13.55361 L 196.79093,0 Z" />
      <path
         style="fill:#000000;fill-opacity:1;stroke:none;stroke-opacity:1"
         inkscape:connector-curvature="0"
         id="path1076"
         d="m 270.81459,-87.517612 q -14.19902,0 -22.58935,10.584726 -8.32579,10.584726 -8.32579,28.849832 0,18.200565 8.32579,28.785291 8.39033,10.5847264 22.58935,10.5847264 14.19903,0 22.46027,-10.5847264 8.3258,-10.584726 8.3258,-28.785291 0,-18.265106 -8.3258,-28.849832 -8.26124,-10.584726 -22.46027,-10.584726 z m 0,-10.584726 q 20.26588,0 32.39959,13.618153 12.13371,13.553613 12.13371,36.401131 0,22.782977 -12.13371,36.401131 -12.13371,13.5536123 -32.39959,13.5536123 -20.33042,0 -32.52867,-13.5536123 -12.13371,-13.553613 -12.13371,-36.401131 0,-22.847518 12.13371,-36.401131 12.19825,-13.618153 32.52867,-13.618153 z" />
      <path
         style="fill:#000000;fill-opacity:1;stroke:none;stroke-opacity:1"
         inkscape:connector-curvature="0"
         id="path1078"
         d="m 335.74285,-96.359731 h 13.03728 v 85.387759 h 46.92132 V 0 h -59.9586 z" />
      <path
         style="fill:#000000;fill-opacity:1;stroke:none;stroke-opacity:1"
         inkscape:connector-curvature="0"
         id="path1080"
         d="m 443.7845,-87.517612 q -14.19902,0 -22.58935,10.584726 -8.32579,10.584726 -8.32579,28.849832 0,18.200565 8.32579,28.785291 8.39033,10.5847264 22.58935,10.5847264 14.19902,0 22.46027,-10.5847264 8.32579,-10.584726 8.32579,-28.785291 0,-18.265106 -8.32579,-28.849832 -8.26125,-10.584726 -22.46027,-10.584726 z m 0,-10.584726 q 20.26588,0 32.39959,13.618153 12.13371,13.553613 12.13371,36.401131 0,22.782977 -12.13371,36.401131 -12.13371,13.5536123 -32.39959,13.5536123 -20.33042,0 -32.52867,-13.5536123 -12.13371,-13.553613 -12.13371,-36.401131 0,-22.847518 12.13371,-36.401131 12.19825,-13.618153 32.52867,-13.618153 z" />
    </g>
    <path
       id="path939"
       transform="translate(-93.01,-296.98)"
       d="M 677.88,547.56 Z"
       class="cls-8"
       inkscape:connector-curvature="0"
       style="fill:none;stroke:#231f20;stroke-width:2px;stroke-miterlimit:10" />
    <path
       style="fill:none;stroke:#3d38fe;stroke-width:2px;stroke-miterlimit:10;stroke-opacity:1"
       id="path941"
       transform="translate(-93.01,-296.98)"
       d="M 677.88,477.72 Z"
       class="cls-8"
       inkscape:connector-curvature="0" />
    <circle
       style="fill:none;stroke:#000000;stroke-width:2px;stroke-miterlimit:10;stroke-opacity:1"
       id="circle943"
       r="13.68"
       cy="14.68"
       cx="214.71001"
       class="cls-8" />
    <circle
       style="fill:none;stroke:#000000;stroke-width:2px;stroke-miterlimit:10;stroke-opacity:1"
       id="circle945"
       r="13.68"
       cy="210.17999"
       cx="14.68"
       class="cls-8" />
    <circle
       style="fill:none;stroke:#000000;stroke-width:2px;stroke-miterlimit:10;stroke-opacity:1"
       id="circle947"
       r="13.68"
       cy="250.58"
       cx="392.57999"
       class="cls-8" />
    <circle
       style="fill:none;stroke:#000000;stroke-width:2px;stroke-miterlimit:10;stroke-opacity:1"
       id="circle949"
       r="13.68"
       cy="89.739998"
       cx="584.87"
       class="cls-8" />
    <g
       style="fill:#000000;fill-opacity:1"
       id="g1133">
      <rect
         style="opacity:1;fill:#000000;fill-opacity:1;fill-rule:nonzero;stroke:none;stroke-width:6.91305923;stroke-linecap:round;stroke-linejoin:round;stroke-miterlimit:4;stroke-dasharray:none;stroke-opacity:1"
         id="rect1112"
         width="172.17479"
         height="6.1592021"
         x="417.17987"
         y="247.13635" />
      <rect
         style="opacity:1;fill:#000000;fill-opacity:1;fill-rule:nonzero;stroke:none;stroke-width:6.30234385;stroke-linecap:round;stroke-linejoin:round;stroke-miterlimit:4;stroke-dasharray:none;stroke-opacity:1"
         id="rect1112-3"
         width="143.09787"
         height="6.1592021"
         x="110.19769"
         y="-589.35468"
         transform="rotate(90)" />
    </g>
    <g
       style="fill:#000000;fill-opacity:1"
       id="g1177">
      <path
         style="fill:#000000;fill-opacity:1;stroke:#231f20;stroke-width:2px;stroke-miterlimit:10"
         inkscape:connector-curvature="0"
         class="cls-8"
         d="M 107.69,312 Z"
         transform="translate(-93.01,-296.98)"
         id="path935" />
      <path
         style="fill:#000000;fill-opacity:1;stroke:#231f20;stroke-width:2px;stroke-miterlimit:10"
         inkscape:connector-curvature="0"
         class="cls-8"
         d="M 107.69,398.23 Z"
         transform="translate(-93.01,-296.98)"
         id="path937" />
      <rect
         style="opacity:1;fill:#000000;fill-opacity:1;fill-rule:nonzero;stroke:none;stroke-width:5.97309828;stroke-linecap:round;stroke-linejoin:round;stroke-miterlimit:4;stroke-dasharray:none;stroke-opacity:1"
         id="rect1156"
         width="181.25002"
         height="6.2500005"
         x="11.250001"
         y="10.676677" />
      <rect
         style="opacity:1;fill:#000000;fill-opacity:1;fill-rule:nonzero;stroke:none;stroke-width:5.92484379;stroke-linecap:round;stroke-linejoin:round;stroke-miterlimit:4;stroke-dasharray:none;stroke-opacity:1"
         id="rect1156-3"
         width="178.33334"
         height="6.2500005"
         x="10.676677"
         y="-17.5"
         transform="rotate(90)" />
    </g>
  </g>
</svg>
